<svg xmlns="http://www.w3.org/2000/svg" viewBox="0 0 24 24" fill="none" stroke="currentColor" stroke-width="1.5" stroke-linecap="round" stroke-linejoin="round">
  

  
  <path d="M6 4&#xA;           C 9 3.2, 15 3.2, 18 4&#xA;           L 18 20&#xA;           C 15 20.8, 9 20.8, 6 20&#xA;           Z" fill="currentColor" fill-opacity="0.08"></path>

  
  <path d="M6 4&#xA;           C 9 3.2, 15 3.2, 18 4&#xA;           C 15 4.8, 9 4.8, 6 4 Z" fill="currentColor" fill-opacity="0.2"></path>

  
  <path d="M6 20&#xA;           C 9 19.2, 15 19.2, 18 20&#xA;           C 15 20.8, 9 20.8, 6 20 Z" fill="currentColor" fill-opacity="0.2"></path>

  
  <line x1="8" y1="8" x2="16" y2="8"></line>
  <line x1="8" y1="11" x2="16" y2="11"></line>
  <line x1="8" y1="14" x2="16" y2="14"></line>
  <line x1="8" y1="17" x2="13" y2="17"></line>

  
  <circle cx="15.5" cy="17" r="1.2" fill="currentColor" stroke="none"></circle>
</svg>